<svg width="24" height="24" viewBox="0 0 24 24" fill="none" xmlns="http://www.w3.org/2000/svg">
<g id="Capa_1">
<g id="Group">
<path id="Vector" d="M4.21875 18.3281H11.25V21.1406H15.4688C15.4688 20.3317 15.4688 13.6171 15.4688 12.7031H13.8662L12.4599 8.48438H10.3927L9.68962 5.67188H5.77913L5.076 8.48438H3.00881L1.60256 12.7031H0V21.1406H4.21875V18.3281ZM1.40625 14.1094H14.0625V16.9219H1.40625V14.1094ZM14.0625 19.7344H12.6562V18.3281H14.0625V19.7344ZM6.87713 7.07812H8.59163L8.94319 8.48438H6.52552L6.87713 7.07812ZM4.02244 9.89062H11.4464L12.3839 12.7031H3.08494L4.02244 9.89062ZM1.40625 19.7344V18.3281H2.8125V19.7344H1.40625Z" fill="black"/>
<path id="Vector_2" d="M24 4.96875C24 3.80564 23.0537 2.85938 21.8906 2.85938C20.7275 2.85938 19.7812 3.80564 19.7812 4.96875C19.7812 6.13186 20.7275 7.07812 21.8906 7.07812C23.0537 7.07812 24 6.13186 24 4.96875ZM21.8906 5.67188C21.5029 5.67188 21.1875 5.35645 21.1875 4.96875C21.1875 4.58105 21.5029 4.26562 21.8906 4.26562C22.2783 4.26562 22.5938 4.58105 22.5938 4.96875C22.5938 5.35645 22.2783 5.67188 21.8906 5.67188Z" fill="black"/>
<path id="Vector_3" d="M15.5625 11.2969H19.7812V21.1406H24V7.07812H15.5625V11.2969ZM16.9688 8.48438H22.5938V19.7344H21.1875V9.89062H16.9688V8.48438Z" fill="black"/>
</g>
</g>
</svg>
