<svg width="24" height="24" viewBox="0 0 24 24" fill="none" xmlns="http://www.w3.org/2000/svg">
<g id="Capa_1" clip-path="url(#clip0_708_7504)">
<g id="Group">
<path id="Vector" d="M23.9991 8.43814H19.7805V7.03195H21.1867V5.62575H19.3164L11.9996 0L4.68262 5.62575H2.81238V7.03195H4.21858V8.43814H0V9.84433H1.40619V24H22.5928V9.84433H23.999L23.9991 8.43814ZM11.9996 1.77382L17.0094 5.6258H6.98967L11.9996 1.77382ZM18.3743 7.03195V16.969H5.62482V7.03195H18.3743ZM14.1088 19.7814H9.89027V18.3752H14.1088V19.7814ZM8.48407 22.5938H5.62482V18.3752H8.48407V22.5938ZM9.89027 21.1876H14.1088V22.5938H9.89027V21.1876ZM15.515 18.3752H18.3743V22.5938H15.515V18.3752ZM4.21862 9.84433V16.969H2.81243V9.84433H4.21862ZM2.81243 18.3752H4.21862V22.5938H2.81243V18.3752ZM19.7805 22.5938V18.3752H21.1867V22.5938H19.7805ZM21.1867 16.969H19.7805V9.84433H21.1867V16.969Z" fill="black"/>
<path id="Vector_2" d="M11.2967 14.0632V8.43848H7.03125V14.0632H11.2967ZM8.43744 9.84467H9.89051V12.6571H8.43744V9.84467Z" fill="black"/>
<path id="Vector_3" d="M16.9686 8.43848H12.7031V14.0632H16.9686V8.43848ZM15.5624 12.6571H14.1093V9.84467H15.5624V12.6571Z" fill="black"/>
</g>
</g>
<defs>
<clipPath id="clip0_708_7504">
<rect width="24" height="24" fill="white"/>
</clipPath>
</defs>
</svg>
