<svg width="24" height="24" viewBox="0 0 24 24" fill="none" xmlns="http://www.w3.org/2000/svg">
<g id="Capa_1" clip-path="url(#clip0_708_7670)">
<g id="Group">
<path id="Vector" d="M21.563 2.43703C19.9914 0.8655 17.9019 0 15.6795 0C13.457 0 11.3675 0.8655 9.79594 2.43703C7.98858 4.23338 7.1025 6.79814 7.42163 9.35109L5.85014 15.001L0 20.8512L3.14883 24L8.99902 18.1498L14.6489 16.5783C17.1549 16.9027 19.7746 16.0147 21.563 14.204C23.1345 12.6325 24 10.543 24 8.32055C24 6.09806 23.1345 4.00861 21.563 2.43703ZM22.4368 9.77466L20.9827 8.32055L22.4368 6.86644C22.6413 7.82414 22.6413 8.817 22.4368 9.77466ZM21.9365 5.37806L19.9884 7.32619L18.8283 6.16608L21.0407 3.95367C21.4028 4.39767 21.7013 4.87659 21.9365 5.37806ZM15.6794 11.6351L14.5193 10.4751L15.6794 9.31495L16.8395 10.4751L15.6794 11.6351ZM17.8339 11.4694L20.0465 13.682C19.6071 14.0413 19.1299 14.3421 18.6245 14.5802L16.6738 12.6295L17.8339 11.4694ZM11.3124 13.682L13.525 11.4694L14.6851 12.6295L12.7344 14.5802C12.229 14.342 11.7519 14.0413 11.3124 13.682ZM8.91862 6.86306L10.3762 8.32059L8.91862 9.77813C8.72409 8.88333 8.70975 7.81913 8.91862 6.86306ZM11.3705 9.31495L12.5307 10.4751L10.3181 12.6876C9.95883 12.2482 9.65803 11.771 9.41986 11.2656L11.3705 9.31495ZM15.6795 5.00597L16.8396 6.16613L15.6795 7.32623L14.5193 6.16608L15.6795 5.00597ZM13.525 5.17177L11.3126 2.95936C11.7566 2.59716 12.2355 2.29875 12.737 2.06353L14.6851 4.01166L13.525 5.17177ZM16.6738 4.01166L18.6219 2.06353C19.1234 2.29875 19.6024 2.5972 20.0463 2.95941L17.8339 5.17181L16.6738 4.01166ZM14.6851 8.32059L13.525 9.4807L12.3648 8.32059L13.5249 7.16048L14.6851 8.32059ZM16.6738 8.32059L17.8339 7.16048L18.994 8.32059L17.8339 9.4807L16.6738 8.32059ZM17.1336 1.56319L15.6795 3.0173L14.2253 1.56319C15.1337 1.36795 16.1641 1.35366 17.1336 1.56319ZM10.318 3.95353L12.5306 6.16613L11.3705 7.32623L9.41981 5.37553C9.65794 4.87017 9.95873 4.39298 10.318 3.95353ZM3.14883 22.0113L1.98872 20.8512L6.47803 16.3619L7.63814 17.522L3.14883 22.0113ZM8.8395 16.7346L7.26544 15.1605L8.16919 11.9113C8.57156 12.7513 9.11789 13.526 9.79598 14.2041C10.4741 14.8822 11.2487 15.4284 12.0888 15.8309L8.8395 16.7346ZM14.2219 15.0814L15.6795 13.6238L17.137 15.0814C16.2422 15.2759 15.178 15.2902 14.2219 15.0814ZM21.0406 12.6874L18.8282 10.475L19.9883 9.31491L21.9365 11.263C21.7013 11.7645 21.4028 12.2434 21.0406 12.6874Z" fill="black"/>
<path id="Vector_2" d="M18.0308 17.6279C16.274 17.6279 14.8447 19.0572 14.8447 20.814C14.8447 22.5709 16.274 24.0001 18.0308 24.0001C19.7876 24.0001 21.2169 22.5708 21.2169 20.814C21.2169 19.0571 19.7876 17.6279 18.0308 17.6279ZM18.0308 22.5938C17.0494 22.5938 16.251 21.7954 16.251 20.814C16.251 19.8326 17.0494 19.0341 18.0308 19.0341C19.0122 19.0341 19.8107 19.8326 19.8107 20.814C19.8107 21.7954 19.0122 22.5938 18.0308 22.5938Z" fill="black"/>
</g>
</g>
<defs>
<clipPath id="clip0_708_7670">
<rect width="24" height="24" fill="white"/>
</clipPath>
</defs>
</svg>
