<svg width="24" height="24" viewBox="0 0 24 24" fill="none" xmlns="http://www.w3.org/2000/svg">
<g id="Capa_1">
<g id="Group">
<path id="Vector" d="M20.2464 1.58212C20.0629 1.42022 18.2723 0 12 0C5.7277 0 3.93708 1.42022 3.75356 1.58212L3.51562 1.79208V24H20.4844V1.79208L20.2464 1.58212ZM12 1.40625C16.4893 1.40625 18.442 2.16736 19.0781 2.49792V5.625H4.92188V2.49792C5.55802 2.16736 7.51069 1.40625 12 1.40625ZM14.1094 19.7812H9.89062V18.375H14.1094V19.7812ZM9.89062 21.1875H14.1094V22.5938H9.89062V21.1875ZM15.5156 22.5938V16.9688H8.48438V22.5938H4.92188V7.03125H19.0781V22.5938H15.5156Z" fill="black"/>
</g>
</g>
</svg>
