<svg width="24" height="24" viewBox="0 0 24 24" fill="none" xmlns="http://www.w3.org/2000/svg">
<g id="Capa_1" clip-path="url(#clip0_708_7518)">
<path id="Vector" d="M24 21.0539V19.6518H21.447V18.2495H22.7033V16.8473H21.447V15.445H22.7033V14.0429H12.5153V15.445H13.8703V16.8473H12.5153V18.2495H13.8703V19.6518H11.2186V21.0539H12.468V22.5351H7.02579L6.99339 12.6756C7.5975 12.5271 8.14065 12.1769 8.52474 11.6851C8.6407 11.6998 8.75787 11.7073 8.87593 11.7074H8.8778C9.61504 11.7074 10.3082 11.4205 10.8299 10.8996C11.4369 10.2934 11.7204 9.43369 11.6168 8.59693C12.2825 8.07942 12.691 7.27164 12.6916 6.41372C12.6922 5.55665 12.2854 4.74891 11.6215 4.23038C11.6363 4.11447 11.6437 3.9973 11.6438 3.87924C11.6443 3.14135 11.3575 2.44736 10.836 1.92527C10.3146 1.40313 9.62112 1.11529 8.88313 1.11473C8.76671 1.11477 8.64791 1.12194 8.53195 1.13654C8.0144 0.471909 7.20718 0.0640851 6.35011 0.0634766C6.34945 0.0634766 6.34894 0.0634766 6.34828 0.0634766C5.49195 0.0634766 4.68487 0.470177 4.16681 1.13355C4.0509 1.1188 3.93368 1.11136 3.81562 1.11126C3.81502 1.11126 3.81436 1.11126 3.81375 1.11126C3.07651 1.11126 2.38333 1.39813 1.86166 1.91905C1.33961 2.44048 1.05177 3.13405 1.05125 3.87185C1.05116 3.9899 1.05846 4.10717 1.07302 4.22307C0.408433 4.74067 0.000562422 5.54789 6.80731e-07 6.40492C-0.000607872 7.26284 0.406841 8.07118 1.0718 8.58962C0.967037 9.42624 1.24936 10.2863 1.85557 10.8934C2.37696 11.4155 3.07048 11.7033 3.80842 11.7039H3.81034C3.92774 11.7039 4.0443 11.6966 4.1596 11.6821C4.52211 12.1475 5.02693 12.4864 5.59124 12.6482V14.444L3.74887 13.6359L3.18563 14.92L5.59124 15.9752L5.62363 22.5351H0.0410546V23.9372H23.9711V22.5351H22.8493V21.0539H24ZM5.11816 10.5835L4.84628 10.0232L4.25781 10.2271C4.11503 10.2766 3.96449 10.3017 3.81034 10.3017C3.81001 10.3017 3.80968 10.3017 3.8094 10.3017C3.446 10.3015 3.10446 10.1597 2.84775 9.9026C2.48215 9.53649 2.35604 8.9828 2.52643 8.49202L2.73067 7.90383L2.17071 7.63158C1.70348 7.4044 1.40182 6.92331 1.40215 6.4059C1.40248 5.88882 1.70456 5.4083 2.17164 5.18164L2.73198 4.90975L2.52802 4.32128C2.47845 4.17823 2.45336 4.02735 2.45345 3.87283C2.45368 3.50948 2.59543 3.16798 2.85257 2.91117C3.10942 2.6546 3.45077 2.51342 3.81385 2.51342H3.81478C3.96926 2.51351 4.12009 2.53883 4.2631 2.58859L4.85124 2.7934L5.12392 2.23343C5.3511 1.76691 5.83162 1.46563 6.34837 1.46563H6.34926C6.8663 1.466 7.34687 1.76803 7.57348 2.23512L7.84537 2.79541L8.43384 2.59145C8.57661 2.54197 8.72716 2.51688 8.88131 2.51688H8.88225C9.24565 2.51711 9.58718 2.65886 9.84395 2.91604C10.1007 3.17313 10.242 3.51486 10.2417 3.87826C10.2416 4.03278 10.2163 4.18356 10.1665 4.32653L9.96168 4.91472L10.5217 5.1874C10.9884 5.41467 11.2898 5.89566 11.2895 6.41269C11.2891 6.93006 10.9868 7.41076 10.5193 7.63729L9.95892 7.90879L10.1624 8.49726C10.3321 8.98827 10.2052 9.54182 9.83912 9.90742C9.58227 10.164 9.24092 10.3052 8.8778 10.3052C8.87752 10.3052 8.87719 10.3052 8.87686 10.3052C8.72238 10.3051 8.57156 10.2798 8.4285 10.23L7.84036 10.0252L7.56768 10.5852C7.3405 11.0517 6.86003 11.353 6.34327 11.353C6.34299 11.353 6.34266 11.353 6.34238 11.353C5.82535 11.3526 5.34482 11.0506 5.11816 10.5835ZM15.2724 15.445H20.0449V16.8473H15.2724V15.445ZM15.2724 18.2495H20.0449V19.6518H15.2724V18.2495ZM21.4471 22.5351H13.8701V21.0539H21.4471V22.5351Z" fill="black"/>
</g>
<defs>
<clipPath id="clip0_708_7518">
<rect width="24" height="24" fill="white"/>
</clipPath>
</defs>
</svg>
