<svg width="24" height="24" viewBox="0 0 24 24" fill="none" xmlns="http://www.w3.org/2000/svg">
<g id="Capa_1">
<g id="Group">
<g id="Group_2">
<path id="Vector" d="M24 19.7344V1.45312H0V19.7344H8.48438V21.1406H4.26562V22.5469H19.7344V21.1406H15.5156V19.7344H24ZM14.1094 21.1406H9.89062V19.7344H14.1094V21.1406ZM1.40625 18.3281V2.85938H22.5938V18.3281H1.40625Z" fill="black"/>
</g>
</g>
<g id="Group_3">
<g id="Group_4">
<path id="Vector_2" d="M12 4.26562C8.51067 4.26562 5.67188 7.10442 5.67188 10.5938C5.67188 14.0831 8.51067 16.9219 12 16.9219C15.4893 16.9219 18.3281 14.0831 18.3281 10.5938C18.3281 7.10442 15.4893 4.26562 12 4.26562ZM11.2969 15.4652C10.6352 15.3701 10.0156 15.1432 9.46575 14.8115C10.0259 14.4749 10.6483 14.2538 11.2969 14.1604V15.4652ZM11.2969 12.7423C10.2286 12.8615 9.20925 13.2506 8.33358 13.8735C7.70133 13.1675 7.26961 12.2786 7.12856 11.2969H11.2969V12.7423ZM11.2969 9.89062H7.12856C7.26961 8.90892 7.70133 8.01998 8.33358 7.31391C9.2092 7.93683 10.2286 8.32603 11.2969 8.44514V9.89062ZM11.2969 7.02713C10.6483 6.93375 10.0259 6.71259 9.46575 6.37598C10.0156 6.04434 10.6352 5.81737 11.2969 5.72231V7.02713ZM12.7031 5.72231C13.3648 5.81737 13.9844 6.04434 14.5343 6.37598C13.9741 6.71259 13.3517 6.93375 12.7031 7.02713V5.72231ZM12.7031 8.44519C13.7714 8.32603 14.7908 7.93688 15.6664 7.31395C16.2987 8.02003 16.7304 8.90897 16.8714 9.89067H12.7031V8.44519ZM12.7031 15.4652V14.1604C13.3517 14.2538 13.9741 14.4749 14.5343 14.8115C13.9844 15.1432 13.3648 15.3701 12.7031 15.4652ZM15.6664 13.8736C14.7908 13.2507 13.7714 12.8615 12.7031 12.7424V11.2922H16.8714C16.7304 12.2739 16.2987 13.1675 15.6664 13.8736Z" fill="black"/>
</g>
</g>
</g>
</svg>
