<svg width="24" height="24" viewBox="0 0 24 24" fill="none" xmlns="http://www.w3.org/2000/svg">
<g id="Capa_1" clip-path="url(#clip0_708_7690)">
<g id="XMLID_252_">
<path id="XMLID_342_" d="M22.3195 1.61051C21.1736 0.464643 19.656 -0.10199 18.0456 0.0151069C16.3796 0.136246 14.7339 0.965371 13.2865 2.41274C11.8513 3.84803 11.0936 5.43958 11.0955 7.01533C11.0962 7.55004 11.1822 8.07677 11.3497 8.58793L10.2279 12.7049L1.88944 21.0434L1.06554 20.2195L0.0683594 21.2166L2.71321 23.8615L3.71039 22.8643L2.88662 22.0405L11.2251 13.7021L15.3419 12.5802C15.8531 12.7477 16.3798 12.8338 16.9146 12.8344H16.9205C18.4943 12.8344 20.0838 12.0768 21.5172 10.6434C22.9646 9.19602 23.7937 7.55032 23.9149 5.88432C24.032 4.27421 23.4654 2.75637 22.3195 1.61051ZM22.3916 4.41937L20.7005 6.11047L19.7586 5.16853L21.7814 3.14569C22.0673 3.5422 22.2702 3.97035 22.3916 4.41937ZM22.4301 6.37522C22.3534 6.74019 22.232 7.10854 22.0657 7.47568L21.6977 7.10765L22.4301 6.37522ZM15.6237 11.1874C15.2138 11.0338 14.8132 10.8051 14.4261 10.5011L16.1948 8.73229L17.1368 9.67428L15.6237 11.1874ZM18.1339 10.6715L18.5283 11.0658C18.1576 11.2281 17.7868 11.3352 17.4185 11.3869L18.1339 10.6715ZM12.7426 8.30635L14.2557 6.79322L15.1976 7.73516L13.4289 9.50392C13.1248 9.11677 12.8961 8.71621 12.7426 8.30635ZM12.5431 6.5115C12.5947 6.14319 12.7018 5.77235 12.8641 5.40164L13.2585 5.79604L12.5431 6.5115ZM19.5099 1.53901C19.959 1.66043 20.387 1.86346 20.7835 2.14931L18.7614 4.1714L17.8195 3.22946L19.5099 1.53901ZM16.8223 2.23228L16.4545 1.86444C16.8217 1.69818 17.1901 1.5761 17.5551 1.49947L16.8223 2.23228ZM17.7642 5.16858L16.1948 6.73798L15.2529 5.79604L16.8223 4.22663L17.7642 5.16858ZM17.192 7.73516L18.7614 6.16576L19.7034 7.1077L18.1339 8.6771L17.192 7.73516ZM15.2051 2.60947L15.8251 3.2295L14.2557 4.79891L13.6173 4.16045C13.8135 3.90853 14.0356 3.65807 14.2837 3.40997C14.5839 3.10973 14.8921 2.84301 15.2051 2.60947ZM11.8635 12.0665L12.3235 10.3782C12.4982 10.6011 12.6907 10.8183 12.9012 11.0288C13.1116 11.2392 13.3289 11.4317 13.5517 11.6064L11.8635 12.0665ZM19.7695 10.3126L19.1311 9.67423L20.7005 8.10483L21.3206 8.72486C21.087 9.03789 20.8203 9.34602 20.52 9.64622C20.2719 9.89437 20.0214 10.1164 19.7695 10.3126Z" fill="black"/>
<path id="XMLID_362_" d="M18.0951 15.6443C17.6942 15.2434 17.161 15.0225 16.5939 15.0225C16.0268 15.0225 15.4937 15.2433 15.0927 15.6443L14.2025 16.5345L10.7465 18.5653L9.73438 20.5896L13.1446 23.9997L15.1237 23.0446L17.204 19.538L18.0951 18.6468C18.4961 18.2458 18.717 17.7127 18.717 17.1456C18.717 16.5785 18.4961 16.0453 18.0951 15.6443C18.0952 15.6443 18.0952 15.6443 18.0951 15.6443ZM16.09 16.6415C16.2246 16.5069 16.4036 16.4327 16.5939 16.4327C16.7844 16.4327 16.9633 16.5069 17.098 16.6415L17.098 16.6416C17.2326 16.7761 17.3068 16.9551 17.3068 17.1456C17.3068 17.336 17.2326 17.5149 17.098 17.6496L16.6428 18.1048L15.6348 17.0968L16.09 16.6415ZM14.1278 21.9594L13.4336 22.2944L12.9379 21.7987L13.8226 20.914L12.8255 19.9168L11.9407 20.8016L11.4503 20.3111L11.8211 19.5695L14.5245 17.981L15.7568 19.2134L14.1278 21.9594Z" fill="black"/>
</g>
</g>
<defs>
<clipPath id="clip0_708_7690">
<rect width="24" height="24" fill="white"/>
</clipPath>
</defs>
</svg>
