<svg width="24" height="24" viewBox="0 0 24 24" fill="none" xmlns="http://www.w3.org/2000/svg">
<g id="Capa_1" clip-path="url(#clip0_708_7543)">
<g id="Group">
<path id="Vector" d="M15.5383 14.2477V13.541H16.9517V14.2477C16.9517 14.6374 16.6346 14.9544 16.245 14.9544C15.8553 14.9544 15.5383 14.6374 15.5383 14.2477ZM10.3506 5.48483L12.0049 2.33904L13.6591 5.48483H10.3506ZM15.256 5.48483L13.7891 2.69535L18.5116 5.48483H15.256ZM10.2206 2.69535L8.75369 5.48483H5.49808L10.2206 2.69535ZM7.05806 14.2477V13.541H8.47144V14.2477C8.47144 14.6374 8.15442 14.9544 7.76475 14.9544C7.37508 14.9544 7.05806 14.6374 7.05806 14.2477ZM18.365 14.2477V12.1277H14.1249V14.2477C14.1249 14.4955 14.1683 14.7335 14.2465 14.9544H12.7116V6.8982H23.6836L12.0049 0L0.326172 6.8982H11.2982V14.9544H9.76326C9.84146 14.7335 9.88481 14.4955 9.88481 14.2477V12.1277H5.64469V14.2477C5.64469 14.4955 5.68804 14.7335 5.76624 14.9544H4.27843V16.3678H11.2982V20.989L9.09332 24H10.845L12.0049 22.4166L13.1648 24H14.9164L12.7116 20.989V16.3678H19.7313V14.9544H18.2435C18.3217 14.7335 18.365 14.4955 18.365 14.2477Z" fill="black"/>
<path id="Vector_2" d="M22.5966 12.1113L21.7014 17.7808H17.5469V23.9997H18.9602V22.021H21.5985V23.9997H23.0119V18.543L23.9926 12.3318L22.5966 12.1113ZM18.9602 20.6076V19.1942H21.5985V20.6076H18.9602Z" fill="black"/>
<path id="Vector_3" d="M1.39608 12.1113L0 12.3318L0.980692 18.543V23.9997H2.39406V22.021H5.03236V23.9997H6.44573V17.7808H2.29126L1.39608 12.1113ZM5.03241 20.6076H2.39411V19.1942H5.03241V20.6076Z" fill="black"/>
</g>
</g>
<defs>
<clipPath id="clip0_708_7543">
<rect width="24" height="24" fill="white"/>
</clipPath>
</defs>
</svg>
