<svg width="24" height="24" viewBox="0 0 24 24" fill="none" xmlns="http://www.w3.org/2000/svg">
<g id="Capa_1" clip-path="url(#clip0_708_7608)">
<g id="Group">
<path id="Vector" d="M19.0285 24L24 19.0284L15.9772 11.0056L17.4331 9.54964C17.9697 9.74505 18.521 9.84386 19.0778 9.84386C21.7916 9.84386 23.9994 7.63602 23.9994 4.92223C23.9994 3.39062 23.3439 2.53778 23.0907 1.90368L19.7809 5.21345H18.7866V4.21915L22.0963 0.909516C21.4724 0.660341 20.6112 0.000562471 19.0778 0.000562471C16.364 0.000562471 14.1562 2.2084 14.1562 4.92219C14.1562 5.47908 14.2549 6.0303 14.4504 6.56685L11.0058 10.0114L5.67468 4.68037V2.69175L2.98297 0L0 2.98297L2.69175 5.67473H4.68042L10.0115 11.0058L6.56695 14.4504C6.0304 14.2549 5.47913 14.1561 4.92228 14.1561C2.2085 14.1561 0.000656217 16.364 0.000656217 19.0778C0.000656217 20.6089 0.65706 21.4641 0.909563 22.0963L4.21919 18.7865H5.2135V19.7809L1.90373 23.0906C2.52897 23.3403 3.3888 23.9994 4.92228 23.9994C7.63607 23.9994 9.84391 21.7915 9.84391 19.0778C9.84391 18.5209 9.74515 17.9696 9.54969 17.4331L11.0056 15.9772L19.0285 24ZM4.2685 4.2685H3.27419L1.98862 2.98297L2.98297 1.98866L4.26855 3.27419L4.2685 4.2685ZM22.0114 19.0284L19.0285 22.0113L11.9999 14.9828L14.9829 11.9999L22.0114 19.0284ZM8.43773 19.0778C8.43773 21.0162 6.8607 22.5932 4.92228 22.5932C4.75401 22.5932 4.58785 22.5816 4.42431 22.5587L6.61968 20.3633V17.3804H3.63675L1.44143 19.5757C1.41841 19.4122 1.40683 19.246 1.40683 19.0778C1.40683 17.1393 2.98386 15.5623 4.92228 15.5623C5.9277 15.5623 6.58762 16.0164 6.87626 16.1297L16.1298 6.87617C16.0161 6.58654 15.5624 5.92859 15.5624 4.92219C15.5624 2.98377 17.1394 1.40674 19.0779 1.40674C19.2461 1.40674 19.4123 1.41832 19.5758 1.44133L17.3805 3.63661V6.61959H20.3634L22.5588 4.42421C22.5818 4.58775 22.5933 4.75391 22.5933 4.92219C22.5933 6.8606 21.0163 8.43763 19.0779 8.43763C18.0724 8.43763 17.4125 7.98353 17.1239 7.87029L7.87033 17.1238C7.98241 17.4093 8.43773 18.0714 8.43773 19.0778Z" fill="black"/>
<path id="Vector_2" d="M13.9863 14.9834L14.9805 13.9892L20.0194 19.0282L19.0253 20.0223L13.9863 14.9834Z" fill="black"/>
</g>
</g>
<defs>
<clipPath id="clip0_708_7608">
<rect width="24" height="24" fill="white"/>
</clipPath>
</defs>
</svg>
