<svg width="24" height="24" viewBox="0 0 24 24" fill="none" xmlns="http://www.w3.org/2000/svg">
<g id="Capa_1" clip-path="url(#clip0_708_7677)">
<g id="Group">
<g id="Group_2">
<path id="Vector" d="M23.9545 16.3948C23.9545 15.4805 23.3681 14.701 22.5518 14.4114V7.15486L24 6.57601L11.9845 1.77344L0 6.57601L5.67271 8.84925V12.1868C5.67271 13.2156 6.39402 14.1429 7.70375 14.7978C8.85898 15.3755 10.3793 15.6936 11.9848 15.6936C13.5903 15.6936 15.1106 15.3755 16.2658 14.7978C17.5756 14.1429 18.2969 13.2157 18.2969 12.1868V8.85553L21.149 7.71554V14.4115C20.3327 14.701 19.7463 15.4806 19.7463 16.3949C19.7463 17.2313 20.237 17.9552 20.9456 18.2941L19.7823 21.7838L21.1131 22.2274L21.8504 20.0154L22.5878 22.2274L23.9185 21.7838L22.7552 18.2941C23.4638 17.9551 23.9545 17.2313 23.9545 16.3948ZM16.8942 12.1867C16.8942 13.1799 14.7947 14.2908 11.9848 14.2908C9.17497 14.2908 7.07544 13.1799 7.07544 12.1867V9.41133L11.9845 11.3786L16.8943 9.41611L16.8942 12.1867ZM11.9852 9.86775L3.77085 6.57601L11.9852 3.28426L20.2207 6.57601L11.9852 9.86775ZM21.8504 17.0962C21.4637 17.0962 21.1491 16.7816 21.1491 16.3948C21.1491 16.0081 21.4637 15.6935 21.8504 15.6935C22.2371 15.6935 22.5518 16.0081 22.5518 16.3948C22.5518 16.7816 22.2371 17.0962 21.8504 17.0962Z" fill="black"/>
</g>
</g>
</g>
<defs>
<clipPath id="clip0_708_7677">
<rect width="24" height="24" fill="white"/>
</clipPath>
</defs>
</svg>
