<svg width="24" height="24" viewBox="0 0 24 24" fill="none" xmlns="http://www.w3.org/2000/svg">
<g id="Capa_1" clip-path="url(#clip0_708_7564)">
<g id="Group">
<g id="Group_2">
<path id="Vector" d="M15.1056 0C10.2027 0 6.21372 3.98888 6.21372 8.89183C6.21372 9.15255 6.22544 9.41346 6.24813 9.67291H4.53958V11.439C3.64877 12.1754 3.12695 13.2705 3.12695 14.4397C3.12695 16.5867 4.87361 18.3334 7.02063 18.3334C8.4551 18.3334 9.70995 17.5531 10.3855 16.3952C11.8298 17.2951 13.4769 17.7838 15.1056 17.7838C20.0086 17.7838 23.9975 13.7949 23.9975 8.89192C23.9975 3.98898 20.0085 0 15.1056 0ZM7.02059 16.9247C5.65029 16.9247 4.53555 15.8099 4.53555 14.4396C4.53555 13.675 4.88594 12.9603 5.48079 12.4901H8.56043C9.15523 12.9603 9.50567 13.675 9.50567 14.4396C9.50562 15.8099 8.39089 16.9247 7.02059 16.9247ZM15.1056 16.3751C13.641 16.3751 12.1527 15.9001 10.8695 15.0303C10.8989 14.8377 10.9142 14.6404 10.9142 14.4397C10.9142 13.2706 10.3924 12.1753 9.50154 11.4389V9.67291H7.66334C7.63643 9.41402 7.62237 9.15288 7.62237 8.89183C7.62242 4.76556 10.9794 1.4086 15.1056 1.4086C19.2319 1.4086 22.5888 4.7656 22.5888 8.89183C22.5888 13.0181 19.2318 16.3751 15.1056 16.3751Z" fill="black"/>
</g>
</g>
<g id="Group_3">
<g id="Group_4">
<path id="Vector_2" d="M11.8305 10.8321V9.59645H14.0415V5.54199H10.4305V6.95059H12.6329V8.18781H10.4219V12.2408H14.0527V10.8321H11.8305Z" fill="black"/>
</g>
</g>
<g id="Group_5">
<g id="Group_6">
<path id="Vector_3" d="M18.2742 5.53027V8.00045H16.8656V5.53027H15.457V9.40905H18.2742V12.2506H19.6828V5.53027H18.2742Z" fill="black"/>
</g>
</g>
<g id="Group_7">
<g id="Group_8">
<path id="Vector_4" d="M9.45971 18.7148H4.5832C2.05705 18.7148 0.00195312 20.77 0.00195312 23.2961V24.0004H14.0409V23.2961C14.0409 20.77 11.9859 18.7148 9.45971 18.7148ZM1.48935 22.5919C1.81049 21.1803 3.07574 20.1235 4.58324 20.1235H9.45971C10.9672 20.1235 12.2325 21.1803 12.5536 22.5919H1.48935Z" fill="black"/>
</g>
</g>
</g>
<defs>
<clipPath id="clip0_708_7564">
<rect width="24" height="24" fill="white"/>
</clipPath>
</defs>
</svg>
