<svg width="24" height="24" viewBox="0 0 24 24" fill="none" xmlns="http://www.w3.org/2000/svg">
<g id="Capa_1" clip-path="url(#clip0_708_7523)">
<g id="Group">
<path id="Vector" d="M19.0781 2.8125H16.9688V8.4375H18.375V7.03125H19.0781C20.2412 7.03125 21.1875 6.08498 21.1875 4.92188C21.1875 3.75877 20.2412 2.8125 19.0781 2.8125ZM19.0781 5.625H18.375V4.21875H19.0781C19.4658 4.21875 19.7812 4.53417 19.7812 4.92188C19.7812 5.30958 19.4658 5.625 19.0781 5.625Z" fill="black"/>
<path id="Vector_2" d="M18.375 0C15.2734 0 12.75 2.52338 12.75 5.625C12.75 8.48855 14.9009 10.8591 17.6719 11.2061V22.5938H16.2656V24H20.4844V22.5938H19.0781V11.2061C21.8491 10.8591 24 8.48855 24 5.625C24 2.52338 21.4766 0 18.375 0ZM18.375 9.84375C16.0488 9.84375 14.1562 7.95122 14.1562 5.625C14.1562 3.29878 16.0488 1.40625 18.375 1.40625C20.7012 1.40625 22.5938 3.29878 22.5938 5.625C22.5938 7.95122 20.7012 9.84375 18.375 9.84375Z" fill="black"/>
<path id="Vector_3" d="M1.40625 24H5.625V21.1875H9.9375V24H14.1562V21.1875H15.5625V15.5625H13.9617L12.5554 11.2969H3.00708L1.60083 15.5625H0V21.1875H1.40625V24ZM4.21875 22.5938H2.8125V21.1875H4.21875V22.5938ZM12.75 22.5938H11.3438V21.1875H12.75V22.5938ZM11.5383 12.7031L12.481 15.5625H3.08152L4.02417 12.7031H11.5383ZM1.40625 16.9688H14.1562V19.7812H1.40625V16.9688Z" fill="black"/>
</g>
</g>
<defs>
<clipPath id="clip0_708_7523">
<rect width="24" height="24" fill="white"/>
</clipPath>
</defs>
</svg>
