<svg width="24" height="24" viewBox="0 0 24 24" fill="none" xmlns="http://www.w3.org/2000/svg">
<g id="Frame">
<g id="Group 46">
<path id="Vector" d="M18.375 1.45312H5.625V22.5469H18.375V1.45312ZM14.1562 21.1406H9.84375V15.5156H14.1562V21.1406ZM16.9688 21.1406H15.5625V14.1094H8.4375V21.1406H7.03125V2.85938H16.9688V21.1406Z" fill="black"/>
<path id="Vector_2" d="M11.2969 16.9219H12.7031V18.3281H11.2969V16.9219Z" fill="black"/>
<path id="Vector_3" d="M8.4375 4.26562H15.5625V5.67188H8.4375V4.26562Z" fill="black"/>
<path id="Vector_4" d="M8.4375 7.07812H15.5625V8.48438H8.4375V7.07812Z" fill="black"/>
<path id="Vector_5" d="M8.4375 9.89062H15.5625V11.2969H8.4375V9.89062Z" fill="black"/>
<path id="Vector_6" d="M0 4.26562H1.40625V5.67188H0V4.26562Z" fill="black"/>
<path id="Vector_7" d="M2.8125 5.67188H4.21875V7.07812H2.8125V5.67188Z" fill="black"/>
<path id="Vector_8" d="M0 7.07812H1.40625V8.48438H0V7.07812Z" fill="black"/>
<path id="Vector_9" d="M0 9.89062H1.40625V11.2969H0V9.89062Z" fill="black"/>
<path id="Vector_10" d="M2.8125 8.48438H4.21875V9.89062H2.8125V8.48438Z" fill="black"/>
<path id="Vector_11" d="M19.7812 5.67188H21.1875V7.07812H19.7812V5.67188Z" fill="black"/>
<path id="Vector_12" d="M22.5938 7.07812H24V8.48438H22.5938V7.07812Z" fill="black"/>
<path id="Vector_13" d="M19.7812 8.48438H21.1875V9.89062H19.7812V8.48438Z" fill="black"/>
<path id="Vector_14" d="M22.5938 4.26562H24V5.67188H22.5938V4.26562Z" fill="black"/>
<path id="Vector_15" d="M22.5938 9.89062H24V11.2969H22.5938V9.89062Z" fill="black"/>
</g>
</g>
</svg>
