<svg width="24" height="24" viewBox="0 0 24 24" fill="none" xmlns="http://www.w3.org/2000/svg">
<g id="Frame" clip-path="url(#clip0_708_7531)">
<path id="Vector" d="M22.8732 18.5632C22.1466 17.7045 21.1381 17.1346 20.0336 16.9589L17.4943 16.6375L15.7282 14.766C16.9733 13.6963 17.7647 12.1031 17.7647 10.3262V8.09015C17.9388 7.6864 18.046 7.24457 18.069 6.78003L20.1605 2.99103L11.9969 0L3.83331 2.99103L5.92474 6.78003C5.94781 7.24475 6.05493 7.6864 6.22925 8.09015V10.3264C6.22925 12.1031 7.02063 13.6963 8.26556 14.766L6.49896 16.6382L3.9884 16.9557L3.96643 16.9589C2.86194 17.1346 1.85339 17.7043 1.12683 18.5632C0.400085 19.422 0 20.5172 0 21.6469V24H1.39233V21.6469C1.39233 19.9966 2.56091 18.6118 4.17261 18.3501L6.99884 17.9927L9.4032 21.7101L11.3007 19.936V24H12.6931V19.936L14.5908 21.7101L16.9955 17.9919L19.8274 18.3501C21.4391 18.6118 22.6077 19.9966 22.6077 21.6469V24H24V21.6469C24 20.5172 23.5999 19.422 22.8732 18.5632ZM7.41742 7.29181H16.5765C16.2962 8.20258 15.4871 8.8623 14.5351 8.8623H9.45886C8.5069 8.8623 7.69775 8.20258 7.41742 7.29181ZM11.9969 1.49634L18.1474 3.74982L16.9689 5.88519H7.02502L5.84637 3.74982L11.9969 1.49634ZM7.62158 10.3264V9.73297C8.15735 10.073 8.7865 10.2691 9.45886 10.2691H14.5351C15.2075 10.2691 15.8364 10.073 16.3724 9.73297V10.3264C16.3724 12.7639 14.4095 14.7469 11.9969 14.7469C9.58429 14.7469 7.62158 12.7639 7.62158 10.3264ZM11.9969 16.1537C12.3898 16.1537 12.7736 16.1136 13.1446 16.0377L11.9969 17.2912L10.8492 16.0377C11.2203 16.1136 11.6041 16.1537 11.9969 16.1537ZM8.04492 17.0385L8.9707 16.0574L11.0132 18.2882L9.66724 19.5467L8.04492 17.0385ZM14.3267 19.5467L12.9807 18.2882L15.0233 16.0574L15.949 17.0385L14.3267 19.5467Z" fill="black"/>
</g>
<defs>
<clipPath id="clip0_708_7531">
<rect width="24" height="24" fill="white"/>
</clipPath>
</defs>
</svg>
