<svg width="24" height="24" viewBox="0 0 24 24" fill="none" xmlns="http://www.w3.org/2000/svg">
<g id="Frame" clip-path="url(#clip0_708_7512)">
<path id="Vector" d="M19.0323 1.98706L17.3362 0.290955H14.7665L12.3746 2.69019V5.25861L13.2623 6.1463L12.457 8.56238L8.56238 12.457L6.1463 13.2623L5.25861 12.3746H2.69037L0.290955 14.7665V17.3362L1.98706 19.0322L0 21.0194L2.98059 24L4.96765 22.0129L6.66376 23.709H9.23346L11.6254 21.3098V18.7414L10.7377 17.8537L11.543 15.4376L15.4376 11.543L17.8537 10.7377L18.7414 11.6254H21.3096L23.709 9.23364V6.66376L22.0129 4.96765L24 2.98059L21.0194 0L19.0323 1.98706ZM2.98059 22.0129L1.98706 21.0194L2.98059 20.0259L3.97412 21.0194L2.98059 22.0129ZM7.24585 22.3039L1.69611 16.7542V15.3497L1.98779 15.059L2.98059 16.0518L3.97412 15.0582L2.98297 14.0671L3.271 13.7798H4.6767L10.2202 19.3233V20.729L9.93311 21.017L8.94177 20.0259L7.94824 21.0194L8.94104 22.0122L8.65027 22.3039H7.24585ZM7.2572 14.3732L8.75208 13.8748L10.125 15.2479L9.62677 16.7428L7.2572 14.3732ZM10.929 14.0645L9.93549 13.071L13.071 9.93549L14.0645 10.929L10.929 14.0645ZM15.2479 10.1252L13.8748 8.75208L14.3732 7.2572L16.7428 9.62677L15.2479 10.1252ZM22.3039 8.65027L22.012 8.94104L21.0192 7.94824L20.0257 8.94177L21.017 9.93292L20.729 10.2202H19.3233L13.7798 4.6767V3.271L14.0669 2.98297L15.058 3.97412L16.0516 2.98059L15.059 1.98779L15.3497 1.69611H16.7542L22.3039 7.24585V8.65027ZM21.0194 3.97412L20.0259 2.98059L21.0194 1.98706L22.0129 2.98059L21.0194 3.97412Z" fill="black"/>
</g>
<defs>
<clipPath id="clip0_708_7512">
<rect width="24" height="24" fill="white"/>
</clipPath>
</defs>
</svg>
