<svg width="24" height="24" viewBox="0 0 24 24" fill="none" xmlns="http://www.w3.org/2000/svg">
<g id="Layer_1">
<g id="Group">
<g id="Group_2">
<path id="Vector" d="M13.4113 18.076C12.6329 17.2976 11.3662 17.2976 10.5877 18.076C9.80929 18.8545 9.80929 20.1211 10.5877 20.8996C10.9769 21.2888 11.4883 21.4835 11.9995 21.4835C12.5107 21.4835 13.0221 21.2889 13.4112 20.8996C14.1897 20.1212 14.1897 18.8545 13.4113 18.076Z" fill="black"/>
</g>
</g>
<g id="Group_3">
<g id="Group_4">
<path id="Vector_2" d="M7.05859 14.5463L8.47033 15.958C10.4165 14.0119 13.583 14.0119 15.5291 15.958L16.9409 14.5463C14.2164 11.8218 9.78316 11.8218 7.05859 14.5463Z" fill="black"/>
</g>
</g>
<g id="Group_5">
<g id="Group_6">
<path id="Vector_3" d="M11.9999 7.50781C8.80011 7.50781 5.79186 8.75384 3.5293 11.0165L4.94103 12.4282C6.82648 10.5427 9.33341 9.50431 11.9998 9.50431C14.6663 9.50431 17.1732 10.5427 19.0587 12.4282L20.4704 11.0165C18.2079 8.75384 15.1997 7.50781 11.9999 7.50781Z" fill="black"/>
</g>
</g>
<g id="Group_7">
<g id="Group_8">
<path id="Vector_4" d="M12 2.5166C7.467 2.5166 3.20531 4.28187 0 7.48718L1.41173 8.89891C4.23998 6.07071 8.00034 4.51315 12 4.51315C15.9997 4.51315 19.76 6.07071 22.5883 8.89896L24 7.48718C20.7947 4.28187 16.533 2.5166 12 2.5166Z" fill="black"/>
</g>
</g>
</g>
</svg>
