<svg width="24" height="24" viewBox="0 0 24 24" fill="none" xmlns="http://www.w3.org/2000/svg">
<g id="Layer_1" clip-path="url(#clip0_708_7622)">
<path id="Vector" d="M24 13.3737H20.637C20.4172 12.1878 19.6521 11.191 18.6124 10.6542V5.1732H21.1754V0.000732422H13.8073V0.877436C13.7161 3.27233 10.283 3.2705 10.1927 0.877436V0.000732422H2.82459V5.17325H5.38762V10.6542C4.34794 11.191 3.5827 12.1878 3.36295 13.3737H0V14.7799H1.20661L3.63694 23.9993H20.3631L22.7934 14.7799H24V13.3737ZM4.23084 3.76695V1.40698H8.83013C9.48698 4.96339 14.5144 4.9609 15.1699 1.40698H19.7692V3.767H17.2062V10.2439C17.0896 10.2332 16.9717 10.2277 16.8524 10.2277H15.7282C13.9438 7.78484 10.056 7.78531 8.27194 10.2277H7.14773C7.02848 10.2277 6.9105 10.2332 6.79397 10.2439V3.76695H4.23084ZM7.14764 11.6339H9.02334L9.23067 11.309C10.4755 9.29347 13.5249 9.29393 14.7694 11.309L14.9767 11.6339H16.8524C17.955 11.6339 18.8894 12.3683 19.1921 13.3736H4.80797C5.11064 12.3683 6.045 11.6339 7.14764 11.6339ZM19.2795 22.593H4.7205L2.66086 14.7799H21.3391L19.2795 22.593Z" fill="black"/>
</g>
<defs>
<clipPath id="clip0_708_7622">
<rect width="24" height="24" fill="white"/>
</clipPath>
</defs>
</svg>
