<svg width="24" height="24" viewBox="0 0 24 24" fill="none" xmlns="http://www.w3.org/2000/svg">
<g id="Layer_1">
<g id="Group">
<path id="Vector" d="M8.48438 16.3647H0V17.771H8.48438V16.3647Z" fill="black"/>
<path id="Vector_2" d="M4.26562 13.5522H0V14.9585H4.26562V13.5522Z" fill="black"/>
<path id="Vector_3" d="M2.85938 10.7397H0V12.146H2.85938V10.7397Z" fill="black"/>
<path id="Vector_4" d="M9.18622 2.01099L2.63281 8.56435L7.42841 14.9585H9.14248C10.1538 14.9585 10.9484 16.3806 11.7898 17.8862C12.8646 19.8097 14.0828 21.9893 16.3409 21.9893H23.9988L23.9987 18.474C23.9987 16.5307 22.3799 14.9585 20.4364 14.9585H19.4755C18.6099 13.0134 18.2559 10.5068 18.3401 8.35233L16.3563 6.36853L14.3483 7.3725C13.7576 7.66786 13.0523 7.66786 12.4616 7.3725C11.7424 7.01292 11.2956 6.29002 11.2956 5.48588V4.12036L9.18622 2.01099ZM11.8327 8.63035C12.8172 9.12258 13.9927 9.12258 14.9772 8.63035L16.0786 8.07961L16.9145 8.91544C16.912 9.27952 16.923 9.9286 17.0017 10.7397H13.405V12.1459H17.1918C17.2706 12.5971 17.3714 13.0703 17.4998 13.5522H14.8112V14.9584H17.9538C18.0254 15.1443 18.1018 15.3296 18.1835 15.5137L17.1265 16.5706L18.1209 17.565L19.3212 16.3647H20.4363C21.605 16.3647 22.5924 17.3306 22.5924 18.474L22.5925 20.5835H16.3409C14.908 20.5835 13.9468 18.8636 13.0174 17.2003C12.0152 15.4068 10.9789 13.5522 9.14253 13.5522H8.13153L4.48962 8.69635L9.18622 3.99975L9.88934 4.70288V5.48592C9.88934 6.82608 10.634 8.031 11.8327 8.63035Z" fill="black"/>
</g>
</g>
</svg>
