<svg width="20" height="20" viewBox="0 0 20 20" fill="none" xmlns="http://www.w3.org/2000/svg">
<g id="Bold / Video, Audio, Sound / Gallery">
<g id="Vector">
<path d="M15.0003 6.66675C15.0003 7.58722 14.2541 8.33341 13.3337 8.33341C12.4132 8.33341 11.667 7.58722 11.667 6.66675C11.667 5.74627 12.4132 5.00008 13.3337 5.00008C14.2541 5.00008 15.0003 5.74627 15.0003 6.66675Z" fill="#EE6611"/>
<path fill-rule="evenodd" clip-rule="evenodd" d="M9.95251 1.04175H10.0481C11.9718 1.04174 13.4793 1.04173 14.6556 1.19987C15.8595 1.36174 16.8095 1.69952 17.5552 2.4452C18.3009 3.19087 18.6387 4.14089 18.8005 5.34484C18.9587 6.52108 18.9587 8.02861 18.9587 9.95227V10.0258C18.9587 11.6165 18.9587 12.9186 18.8723 13.9789C18.7855 15.0443 18.6076 15.9346 18.2094 16.674C18.0338 17.0002 17.818 17.2922 17.5552 17.555C16.8095 18.3006 15.8595 18.6384 14.6556 18.8003C13.4793 18.9584 11.9718 18.9584 10.0481 18.9584H9.95252C8.02885 18.9584 6.52132 18.9584 5.34508 18.8003C4.14113 18.6384 3.19111 18.3006 2.44544 17.555C1.78437 16.8939 1.44299 16.0711 1.26145 15.0504C1.08312 14.0478 1.05049 12.8003 1.04372 11.2513C1.04199 10.8573 1.04199 10.4406 1.04199 10.0009V9.95227C1.04198 8.02861 1.04197 6.52107 1.20011 5.34484C1.36198 4.14089 1.69976 3.19087 2.44544 2.4452C3.19111 1.69952 4.14113 1.36174 5.34508 1.19987C6.52132 1.04173 8.02886 1.04174 9.95251 1.04175ZM5.51164 2.43872C4.4463 2.58195 3.80404 2.85437 3.32932 3.32908C2.85461 3.80379 2.5822 4.44606 2.43897 5.5114C2.29332 6.59471 2.29199 8.01823 2.29199 10.0001C2.29199 10.2422 2.29199 10.4763 2.29228 10.703L3.12656 9.97301C3.88595 9.30855 5.03047 9.34665 5.74397 10.0602L9.31874 13.6349C9.89144 14.2076 10.7929 14.2857 11.4556 13.82L11.7041 13.6454C12.6576 12.9753 13.9477 13.0529 14.814 13.8325L17.1727 15.9554C17.4101 15.4567 17.5511 14.8016 17.6264 13.8773C17.7082 12.8736 17.7087 11.6216 17.7087 10.0001C17.7087 8.01823 17.7073 6.59471 17.5617 5.5114C17.4185 4.44606 17.146 3.80379 16.6713 3.32908C16.1966 2.85437 15.5543 2.58195 14.489 2.43872C13.4057 2.29308 11.9822 2.29175 10.0003 2.29175C8.01847 2.29175 6.59495 2.29308 5.51164 2.43872Z" fill="#EE6611"/>
</g>
</g>
</svg>
